# xmcd
#
# Track frame offsets: 
#        150
#        24916
#        44641
#        72182
#        93687
#        123455
#        141184
#        165564
#        195654
#        222508
#        248845
#        269414
#
# Disc length: 3905 seconds
#
# Revision: 0
# Processed by: cddbd v1.5.2PL0 Copyright (c) Steve Scherf et al.
# Submitted via: ExactAudioCopy v0.95a5
#
DISCID=b50f3f0c
DTITLE=Joe Bonamassa - Joe Bonamassa - Redemption
DYEAR=1900
DGENRE=Blues
TTITLE0=Evil Mama
TTITLE1=King Bee Shakedown
TTITLE2=Molly O'
TTITLE3=Deep in the Blues Again
TTITLE4=Self-Inflicted Wounds
TTITLE5=Pick Up the Pieces
TTITLE6=The Ghost of Macon Jones
TTITLE7=Just 'Cos You Can Don't Mean You Should
TTITLE8=Redemption
TTITLE9=I've Got Some Mind Over What Matters
TTITLE10=Stronger Now in Broken Places
TTITLE11=Love Is a Gamble
EXTD=
EXTT0=
EXTT1=
EXTT2=
EXTT3=
EXTT4=
EXTT5=
EXTT6=
EXTT7=
EXTT8=
EXTT9=
EXTT10=
EXTT11=
PLAYORDER=
